<svg width="300" height="300" viewBox="0 0 300 300" fill="none" xmlns="http://www.w3.org/2000/svg">
<path d="M40 1H260C281.539 1 299 18.4609 299 40V150V260C299 281.539 281.539 299 260 299H40C18.4609 299 1 281.539 1 260V40C1 18.4609 18.4609 1 40 1Z" stroke="#CDD6F4" stroke-width="2"/>
<path d="M255 80C255 99.33 239.33 115 220 115C200.67 115 185 99.33 185 80C185 60.67 200.67 45 220 45C239.33 45 255 60.67 255 80Z" fill="#CDD6F4"/>
<path d="M115 220C115 239.33 99.33 255 80 255C60.67 255 45 239.33 45 220C45 200.67 60.67 185 80 185C99.33 185 115 200.67 115 220Z" fill="#CDD6F4"/>
<path d="M185 150C185 169.33 169.33 185 150 185C130.67 185 115 169.33 115 150C115 130.67 130.67 115 150 115C169.33 115 185 130.67 185 150Z" fill="#CDD6F4"/>
</svg>
