<svg width="300" height="300" viewBox="0 0 300 300" fill="none" xmlns="http://www.w3.org/2000/svg">
<g clip-path="url(#clip0_2_19)">
<path d="M40 1H260C281.539 1 299 18.4609 299 40V150V260C299 281.539 281.539 299 260 299H40C18.4609 299 1 281.539 1 260V40C1 18.4609 18.4609 1 40 1Z" stroke="#CDD6F4" stroke-width="2"/>
<path d="M275 59C275 78.33 259.33 94 240 94C220.67 94 205 78.33 205 59C205 39.67 220.67 24 240 24C259.33 24 275 39.67 275 59Z" fill="#CDD6F4"/>
<path d="M97 238C97 257.33 81.33 273 62 273C42.67 273 27 257.33 27 238C27 218.67 42.67 203 62 203C81.33 203 97 218.67 97 238Z" fill="#CDD6F4"/>
<path d="M275 238C275 257.33 259.33 273 240 273C220.67 273 205 257.33 205 238C205 218.67 220.67 203 240 203C259.33 203 275 218.67 275 238Z" fill="#CDD6F4"/>
<path d="M97 59C97 78.33 81.33 94 62 94C42.67 94 27 78.33 27 59C27 39.67 42.67 24 62 24C81.33 24 97 39.67 97 59Z" fill="#CDD6F4"/>
</g>
<defs>
<clipPath id="clip0_2_19">
<rect width="300" height="300" fill="white"/>
</clipPath>
</defs>
</svg>
